<?xml version="1.0" encoding="UTF-8" standalone="no"?>
<svg width="100px" height="100px" viewBox="0 0 100 100" version="1.1" xmlns="http://www.w3.org/2000/svg" xmlns:xlink="http://www.w3.org/1999/xlink" xmlns:sketch="http://www.bohemiancoding.com/sketch/ns">
    <!-- Generator: Sketch 3.3.2 (12043) - http://www.bohemiancoding.com/sketch -->
    <title>swarm</title>
    <desc>Created with Sketch.</desc>
    <defs></defs>
    <g id="Page-1" stroke="none" stroke-width="1" fill="none" fill-rule="evenodd" sketch:type="MSPage">
        <g id="Group" sketch:type="MSLayerGroup" transform="translate(-153.000000, -21.000000)"></g>
        <g id="swarm" sketch:type="MSLayerGroup" transform="translate(17.166667, 15.000000)" stroke="#7A8490" stroke-width="2">
            <path d="M38.2471413,0 C39.0659674,0 40.06175,0.574304348 40.4719674,1.28373913 L46.4209239,11.5874348 L39.7303587,23.1764783 L26.3492283,23.1764783 L19.658663,11.5874348 L25.6076196,1.28373913 C26.0162283,0.574304348 27.0120109,0 27.8324457,0 L38.2471413,0 L38.2471413,0 Z M19.63775,11.5874348 L26.3283152,23.1764783 L19.63775,34.7655217 L6.25661957,34.7655217 L0.307663043,24.4618261 C-0.102554348,23.7507826 -0.102554348,22.6021739 0.307663043,21.8927391 L5.51501087,12.8727826 C5.92361957,12.1633478 6.91940217,11.5874348 7.73983696,11.5874348 L19.63775,11.5874348 L19.63775,11.5874348 Z M58.2271413,11.5874348 C59.0459674,11.5874348 60.04175,12.1617391 60.4519674,12.8727826 L65.6593152,21.8927391 C66.0695326,22.6021739 66.0695326,23.7507826 65.6593152,24.4618261 L59.7103587,34.7655217 L46.3292283,34.7655217 L39.638663,23.1764783 L46.3292283,11.5874348 L58.2271413,11.5874348 L58.2271413,11.5874348 Z M27.8324457,69.5262174 C27.0136196,69.5262174 26.0162283,68.951913 25.6076196,68.2424783 L19.658663,57.9371739 L26.3492283,46.3497391 L39.7303587,46.3497391 L46.4209239,57.9371739 L40.4719674,68.2424783 C40.06175,68.951913 39.0659674,69.5262174 38.2471413,69.5262174 L27.8324457,69.5262174 L27.8324457,69.5262174 Z M46.3292283,57.9371739 L39.638663,46.3497391 L46.3292283,34.7606957 L59.7103587,34.7606957 L65.6593152,45.0643913 C66.0695326,45.7738261 66.0695326,46.9240435 65.6593152,47.6334783 L60.4519674,56.6534348 C60.0433587,57.3628696 59.0475761,57.9371739 58.2271413,57.9371739 L46.3292283,57.9371739 L46.3292283,57.9371739 Z M7.73983696,57.9371739 C6.92101087,57.9371739 5.92361957,57.3628696 5.51501087,56.6534348 L0.307663043,47.6334783 C-0.102554348,46.9240435 -0.102554348,45.7738261 0.307663043,45.0643913 L6.25661957,34.7606957 L19.63775,34.7606957 L26.3283152,46.3497391 L19.63775,57.9371739 L7.73983696,57.9371739 L7.73983696,57.9371739 Z" id="Imported-Layers" sketch:type="MSShapeGroup"></path>
        </g>
    </g>
</svg>